<svg xmlns="http://www.w3.org/2000/svg" viewBox="0 0 513 513" width="513" height="513">
	<style>
		tspan { white-space:pre }
		.shp0 { fill: #ffffff;stroke: #000000;stroke-width: 9 } 
	</style>
	<g id="Layer">
		<g id="Layer">
			<path id="Layer" class="shp0" d="M444.18 280.08C442.77 276.72 439.5 274.53 435.88 274.53L337.45 274.53L337.45 49.98C337.45 45.02 333.43 41 328.47 41L184.76 41C179.81 41 175.78 45.02 175.78 49.98L175.78 274.53L76.98 274.53C73.35 274.53 70.08 276.72 68.68 280.06C67.3 283.42 68.05 287.28 70.62 289.85L249.81 469.63C251.5 471.32 253.78 472.27 256.17 472.27C258.56 472.27 260.84 471.32 262.53 469.65L442.24 289.87C444.8 287.3 445.58 283.44 444.18 280.08Z" />
		</g>
	</g>
</svg>